<svg version="1.1" viewBox="0.0 0.0 1122.5196850393702 793.7007874015748" fill="none" stroke="none" stroke-linecap="square" stroke-miterlimit="10" xmlns:xlink="http://www.w3.org/1999/xlink" xmlns="http://www.w3.org/2000/svg"><clipPath id="p_1.0"><path d="m0 0l1122.5197 0l0 793.7008l-1122.5197 0l0 -793.7008z" clip-rule="nonzero"/></clipPath><g clip-path="url(#p_1.0)"><path fill="#000000" fill-opacity="0.0" d="m0 0l1122.5197 0l0 793.7008l-1122.5197 0z" fill-rule="evenodd"/><path fill="#ffffff" d="m211.49869 243.0l630.48816 0l0 282.01575l-630.48816 0z" fill-rule="evenodd"/><path fill="#000000" fill-opacity="0.0" d="m406.74277 330.0866l32.0 16.0" fill-rule="evenodd"/><path stroke="#000000" stroke-width="1.0" stroke-linejoin="round" stroke-linecap="butt" d="m406.74277 330.0866l32.0 16.0" fill-rule="evenodd"/><path fill="#000000" fill-opacity="0.0" d="m286.5538 370.0866l40.188965 0l0 30.960632l-40.188965 0z" fill-rule="evenodd"/><path fill="#000000" d="m302.44443 377.7435q1.9375 0 3.125 1.03125q1.203125 1.015625 1.21875 2.921875l-1.515625 0q0 -1.296875 -0.765625 -1.984375q-0.765625 -0.6875 -2.0625 -0.6875q-2.171875 0 -3.46875 1.671875q-1.296875 1.671875 -1.296875 4.015625q0 1.734375 0.859375 2.734375q0.875 0.984375 2.53125 0.984375q1.328125 0 2.21875 -0.703125q0.90625 -0.71875 1.3125 -2.140625l1.515625 0q-0.46875 2.046875 -1.765625 3.09375q-1.296875 1.046875 -3.28125 1.046875q-2.328125 0 -3.625 -1.3125q-1.28125 -1.328125 -1.28125 -3.703125q0 -2.953125 1.75 -4.953125q1.765625 -2.015625 4.53125 -2.015625z" fill-rule="nonzero"/><path fill="#000000" d="m309.5616 387.83725l-0.234375 1.109375l-0.921875 0l0.234375 -1.109375l0.921875 0zm-0.453125 2.09375l-1.140625 5.515625l-0.90625 0l1.140625 -5.515625l0.90625 0z" fill-rule="nonzero"/><path fill="#000000" fill-opacity="0.0" d="m625.7979 243.0l40.188965 0l0 31.086609l-40.188965 0z" fill-rule="evenodd"/><path fill="#000000" d="m641.81354 250.93813q1.71875 0 2.6875 0.734375q0.984375 0.734375 0.984375 2.171875q0 1.109375 -0.703125 2.0q-0.6875 0.89060974 -1.875 1.0781097l0 0.03125q0.546875 0.15625 0.875 0.671875q0.328125 0.515625 0.328125 1.34375q0 0.4375 -0.125 1.1875q-0.109375 0.75 -0.109375 1.203125q0 0.265625 0.046875 0.53125q0.0625 0.25 0.171875 0.46875l-1.578125 0q-0.0625 -0.1875 -0.09375 -0.4375q-0.03125 -0.25 -0.03125 -0.578125q0 -0.578125 0.125 -1.234375q0.125 -0.65625 0.125 -1.109375q0 -0.703125 -0.28125 -1.078125q-0.265625 -0.390625 -0.921875 -0.453125l-3.984375 0l-1.015625 4.890625l-1.53125 0l2.421875 -11.42186l4.484375 0zm-3.234375 1.28125l-0.84375 3.9843597l3.484375 0q1.28125 0 2.015625 -0.60935974q0.734375 -0.609375 0.734375 -1.65625q0 -0.859375 -0.5625 -1.28125q-0.546875 -0.4375 -1.609375 -0.4375l-3.21875 0z" fill-rule="nonzero"/><path fill="#000000" d="m650.3682 260.8131l-1.59375 7.515625l-0.015625 0.03125l-0.953125 0l1.21875 -5.75q-0.484375 0.125 -0.953125 0.171875q-0.46875 0.046875 -0.984375 0.046875l0.140625 -0.71875q0.796875 -0.015625 1.453125 -0.359375q0.671875 -0.359375 0.984375 -0.9375l0.703125 0z" fill-rule="nonzero"/><path fill="#000000" fill-opacity="0.0" d="m286.74277 330.0866l0 64.0" fill-rule="evenodd"/><path stroke="#000000" stroke-width="1.0" stroke-linejoin="round" stroke-linecap="butt" d="m286.74277 330.0866l0 64.0" fill-rule="evenodd"/><path fill="#000000" fill-opacity="0.0" d="m286.74277 426.0866l0 64.0" fill-rule="evenodd"/><path stroke="#000000" stroke-width="1.0" stroke-linejoin="round" stroke-linecap="butt" d="m286.74277 426.0866l0 64.0" fill-rule="evenodd"/><path fill="#000000" fill-opacity="0.0" d="m230.74278 330.0866l111.999985 0" fill-rule="evenodd"/><path stroke="#000000" stroke-width="1.0" stroke-linejoin="round" stroke-linecap="butt" d="m230.74278 330.0866l111.999985 0" fill-rule="evenodd"/><path fill="#000000" fill-opacity="0.0" d="m230.74278 490.0866l111.999985 0" fill-rule="evenodd"/><path stroke="#000000" stroke-width="1.0" stroke-linejoin="round" stroke-linecap="butt" d="m230.74278 490.0866l111.999985 0" fill-rule="evenodd"/><path fill="#000000" fill-opacity="0.0" d="m438.74277 386.0866l8.0 5.333618l-8.0 5.3335876l8.0 5.3335876l-8.0 5.333618l8.0 5.3335876l-8.0 5.333618" fill-rule="evenodd"/><path stroke="#38761d" stroke-width="2.0" stroke-linejoin="round" stroke-linecap="butt" d="m438.74277 386.0866l8.0 5.333618l-8.0 5.3335876l8.0 5.3335876l-8.0 5.333618l8.0 5.3335876l-8.0 5.333618" fill-rule="evenodd"/><path fill="#000000" fill-opacity="0.0" d="m518.7428 354.0866l48.0 -48.0" fill-rule="evenodd"/><path stroke="#38761d" stroke-width="2.0" stroke-linejoin="round" stroke-linecap="butt" d="m518.7428 354.0866l39.51471 -39.51471" fill-rule="evenodd"/><path fill="#38761d" stroke="#38761d" stroke-width="2.0" stroke-linecap="butt" d="m560.5934 316.9078l4.08197 -8.753754l-8.753784 4.0819397z" fill-rule="evenodd"/><path fill="#ffffff" d="m526.7428 330.0866l0 0c0 -8.836548 7.163452 -16.0 16.0 -16.0l0 0c4.243469 0 8.31311 1.68573 11.313721 4.68631c3.0005493 3.0005798 4.6862793 7.070221 4.6862793 11.31369l0 0c0 8.836548 -7.163452 16.0 -16.0 16.0l0 0c-8.836548 0 -16.0 -7.163452 -16.0 -16.0z" fill-rule="evenodd"/><path stroke="#38761d" stroke-width="2.0" stroke-linejoin="round" stroke-linecap="butt" d="m526.7428 330.0866l0 0c0 -8.836548 7.163452 -16.0 16.0 -16.0l0 0c4.243469 0 8.31311 1.68573 11.313721 4.68631c3.0005493 3.0005798 4.6862793 7.070221 4.6862793 11.31369l0 0c0 8.836548 -7.163452 16.0 -16.0 16.0l0 0c-8.836548 0 -16.0 -7.163452 -16.0 -16.0z" fill-rule="evenodd"/><path fill="#000000" d="m540.8801 337.00662l-4.78125 -13.359375l2.9375 0l3.375 9.890625l3.265625 -9.890625l2.859375 0l-4.78125 13.359375l-2.875 0z" fill-rule="nonzero"/><path fill="#000000" fill-opacity="0.0" d="m230.74278 490.0l0 -159.93701" fill-rule="evenodd"/><path stroke="#000000" stroke-width="1.0" stroke-linejoin="round" stroke-linecap="butt" d="m230.74278 490.0l0 -159.93701" fill-rule="evenodd"/><path fill="#000000" fill-opacity="0.0" d="m238.36482 370.6063l40.18898 0l0 30.960632l-40.18898 0z" fill-rule="evenodd"/><path fill="#000000" d="m250.17732 378.54443l1.171875 9.9375l0.03125 0l5.4218903 -9.9375l1.625 0l-6.4531403 11.421875l-1.703125 0l-1.640625 -11.421875l1.546875 0z" fill-rule="nonzero"/><path fill="#000000" d="m263.81015 388.35693l-0.1875 0.859375l-3.984375 0l-0.5 2.40625l3.515625 0l-0.1875 0.859375l-3.515625 0l-0.71875 3.484375l-1.015625 0l1.578125 -7.609375l5.015625 0z" fill-rule="nonzero"/><path fill="#000000" fill-opacity="0.0" d="m270.74277 402.0866l32.0 0" fill-rule="evenodd"/><path stroke="#38761d" stroke-width="2.0" stroke-linejoin="round" stroke-linecap="butt" d="m270.74277 402.0866l32.0 0" fill-rule="evenodd"/><path fill="#000000" fill-opacity="0.0" d="m277.1428 418.0866l0 0" fill-rule="evenodd"/><path stroke="#38761d" stroke-width="2.0" stroke-linejoin="round" stroke-linecap="butt" d="m277.1428 418.0866l0 0" fill-rule="evenodd"/><path fill="#000000" fill-opacity="0.0" d="m270.74277 418.0866l32.0 0" fill-rule="evenodd"/><path stroke="#38761d" stroke-width="2.0" stroke-linejoin="round" stroke-linecap="butt" d="m270.74277 418.0866l32.0 0" fill-rule="evenodd"/><path fill="#000000" fill-opacity="0.0" d="m286.74277 402.0866l0 -8.0" fill-rule="evenodd"/><path stroke="#38761d" stroke-width="2.0" stroke-linejoin="round" stroke-linecap="butt" d="m286.74277 402.0866l0 -8.0" fill-rule="evenodd"/><path fill="#000000" fill-opacity="0.0" d="m286.74277 418.08398l0 8.0" fill-rule="evenodd"/><path stroke="#38761d" stroke-width="2.0" stroke-linejoin="round" stroke-linecap="butt" d="m286.74277 418.08398l0 8.0" fill-rule="evenodd"/><path fill="#d9ead3" d="m342.74277 314.0866l64.0 0l0 192.0l-64.0 0z" fill-rule="evenodd"/><path stroke="#274e13" stroke-width="1.0" stroke-linejoin="round" stroke-linecap="butt" d="m342.74277 314.0866l64.0 0l0 192.0l-64.0 0z" fill-rule="evenodd"/><path fill="#000000" d="m352.6334 405.39725l0 -1.578125l8.640625 0l0 1.28125q-1.28125 1.359375 -2.53125 3.609375q-1.25 2.25 -1.9375 4.625q-0.484375 1.671875 -0.625 3.671875l-1.6875 0q0.03125 -1.578125 0.625 -3.8125q0.59375 -2.234375 1.6875 -4.296875q1.109375 -2.078125 2.359375 -3.5l-6.53125 0zm12.781982 4.375q-1.015625 -0.375 -1.515625 -1.0625q-0.484375 -0.703125 -0.484375 -1.671875q0 -1.453125 1.046875 -2.4375q1.046875 -1.0 2.78125 -1.0q1.75 0 2.8125 1.015625q1.078125 1.015625 1.078125 2.46875q0 0.9375 -0.5 1.625q-0.484375 0.6875 -1.46875 1.0625q1.21875 0.390625 1.859375 1.28125q0.65625 0.890625 0.65625 2.140625q0 1.703125 -1.21875 2.875q-1.21875 1.171875 -3.1875 1.171875q-1.984375 0 -3.203125 -1.171875q-1.203125 -1.171875 -1.203125 -2.921875q0 -1.3125 0.65625 -2.1875q0.671875 -0.875 1.890625 -1.1875zm-0.328125 -2.78125q0 0.9375 0.609375 1.546875q0.609375 0.59375 1.59375 0.59375q0.9375 0 1.546875 -0.59375q0.609375 -0.59375 0.609375 -1.453125q0 -0.90625 -0.625 -1.515625q-0.625 -0.625 -1.5625 -0.625q-0.9375 0 -1.5625 0.609375q-0.609375 0.59375 -0.609375 1.4375zm-0.53125 6.15625q0 0.703125 0.328125 1.359375q0.34375 0.65625 1.0 1.015625q0.65625 0.359375 1.40625 0.359375q1.171875 0 1.9375 -0.75q0.765625 -0.75 0.765625 -1.921875q0 -1.1875 -0.796875 -1.953125q-0.78125 -0.78125 -1.953125 -0.78125q-1.15625 0 -1.921875 0.765625q-0.765625 0.765625 -0.765625 1.90625zm8.719452 -2.734375q0 -2.359375 0.484375 -3.796875q0.484375 -1.453125 1.4375 -2.234375q0.96875 -0.78125 2.421875 -0.78125q1.078125 0 1.890625 0.4375q0.8125 0.421875 1.328125 1.25q0.53125 0.8125 0.828125 1.984375q0.3125 1.15625 0.3125 3.140625q0 2.359375 -0.484375 3.8125q-0.484375 1.4375 -1.453125 2.234375q-0.953125 0.78125 -2.421875 0.78125q-1.921875 0 -3.03125 -1.390625q-1.3125 -1.671875 -1.3125 -5.4375zm1.671875 0q0 3.296875 0.765625 4.390625q0.78125 1.078125 1.90625 1.078125q1.140625 0 1.90625 -1.09375q0.765625 -1.09375 0.765625 -4.375q0 -3.296875 -0.765625 -4.375q-0.765625 -1.078125 -1.921875 -1.078125q-1.125 0 -1.796875 0.953125q-0.859375 1.21875 -0.859375 4.5zm8.703857 3.09375l1.71875 -0.140625q0.1875 1.25 0.875 1.890625q0.703125 0.625 1.6875 0.625q1.1875 0 2.0 -0.890625q0.828125 -0.890625 0.828125 -2.359375q0 -1.40625 -0.796875 -2.21875q-0.78125 -0.8125 -2.0625 -0.8125q-0.78125 0 -1.421875 0.359375q-0.640625 0.359375 -1.0 0.9375l-1.546875 -0.203125l1.296875 -6.859375l6.640625 0l0 1.5625l-5.328125 0l-0.71875 3.59375q1.203125 -0.84375 2.515625 -0.84375q1.75 0 2.953125 1.21875q1.203125 1.203125 1.203125 3.109375q0 1.8125 -1.046875 3.140625q-1.296875 1.625 -3.515625 1.625q-1.8125 0 -2.96875 -1.015625q-1.15625 -1.03125 -1.3125 -2.71875z" fill-rule="nonzero"/><path fill="#000000" fill-opacity="0.0" d="m462.74277 330.0866l-56.0 0" fill-rule="evenodd"/><path stroke="#000000" stroke-width="1.0" stroke-linejoin="round" stroke-linecap="butt" d="m462.74277 330.0866l-56.0 0" fill-rule="evenodd"/><path fill="#000000" fill-opacity="0.0" d="m478.74277 490.0866l-72.0 0" fill-rule="evenodd"/><path stroke="#000000" stroke-width="1.0" stroke-linejoin="round" stroke-linecap="butt" d="m478.74277 490.0866l-72.0 0" fill-rule="evenodd"/><path fill="#000000" fill-opacity="0.0" d="m438.74277 346.0866l0 16.0" fill-rule="evenodd"/><path stroke="#000000" stroke-width="1.0" stroke-linejoin="round" stroke-linecap="butt" d="m438.74277 346.0866l0 12.210022" fill-rule="evenodd"/><path stroke="#000000" stroke-width="1.0" stroke-linecap="butt" d="m438.74277 361.5866c-0.9085083 0 -1.644989 -0.7364807 -1.644989 -1.644989c0 -0.9085083 0.7364807 -1.6450195 1.644989 -1.6450195c0.9085083 0 1.6450195 0.73651123 1.6450195 1.6450195c0 0.9085083 -0.73651123 1.644989 -1.6450195 1.644989z" fill-rule="nonzero"/><path fill="#000000" fill-opacity="0.0" d="m414.74277 466.0866l48.0 -48.0" fill-rule="evenodd"/><path stroke="#38761d" stroke-width="2.0" stroke-linejoin="round" stroke-linecap="butt" d="m414.74277 466.0866l39.51474 -39.51471" fill-rule="evenodd"/><path fill="#38761d" stroke="#38761d" stroke-width="2.0" stroke-linecap="butt" d="m456.5934 428.9078l4.0819397 -8.753754l-8.753754 4.0819397z" fill-rule="evenodd"/><path fill="#ffffff" d="m422.74277 442.0866l0 0c0 -8.836548 7.163452 -16.0 16.0 -16.0l0 0c4.243469 0 8.313141 1.68573 11.313721 4.68631c3.0005798 3.0005798 4.6862793 7.070221 4.6862793 11.31369l0 0c0 8.836548 -7.1634216 16.0 -16.0 16.0l0 0c-8.836548 0 -16.0 -7.163452 -16.0 -16.0z" fill-rule="evenodd"/><path stroke="#38761d" stroke-width="2.0" stroke-linejoin="round" stroke-linecap="butt" d="m422.74277 442.0866l0 0c0 -8.836548 7.163452 -16.0 16.0 -16.0l0 0c4.243469 0 8.313141 1.68573 11.313721 4.68631c3.0005798 3.0005798 4.6862793 7.070221 4.6862793 11.31369l0 0c0 8.836548 -7.1634216 16.0 -16.0 16.0l0 0c-8.836548 0 -16.0 -7.163452 -16.0 -16.0z" fill-rule="evenodd"/><path fill="#000000" d="m444.65973 449.00662l-2.9375 0l-1.171875 -3.03125l-5.328125 0l-1.109375 3.03125l-2.859375 0l5.203125 -13.359375l2.84375 0l5.359375 13.359375zm-4.96875 -5.28125l-1.84375 -4.953125l-1.796875 4.953125l3.640625 0z" fill-rule="nonzero"/><path fill="#000000" fill-opacity="0.0" d="m438.74277 418.0866l0 8.0" fill-rule="evenodd"/><path stroke="#000000" stroke-width="1.0" stroke-linejoin="round" stroke-linecap="butt" d="m438.74277 418.0866l0 8.0" fill-rule="evenodd"/><path fill="#000000" fill-opacity="0.0" d="m438.74277 378.0866l16.0 -16.0" fill-rule="evenodd"/><path stroke="#000000" stroke-width="1.0" stroke-linejoin="round" stroke-linecap="butt" d="m438.74277 378.0866l16.0 -16.0" fill-rule="evenodd"/><path fill="#000000" fill-opacity="0.0" d="m438.74277 378.0866l0 8.0" fill-rule="evenodd"/><path stroke="#000000" stroke-width="1.0" stroke-linejoin="round" stroke-linecap="butt" d="m438.74277 378.0866l0 8.0" fill-rule="evenodd"/><path fill="#000000" fill-opacity="0.0" d="m406.74277 490.0866l32.0 -16.0" fill-rule="evenodd"/><path stroke="#000000" stroke-width="1.0" stroke-linejoin="round" stroke-linecap="butt" d="m406.74277 490.0866l32.0 -16.0" fill-rule="evenodd"/><path fill="#000000" fill-opacity="0.0" d="m438.74277 474.0866l0 -16.0" fill-rule="evenodd"/><path stroke="#000000" stroke-width="1.0" stroke-linejoin="round" stroke-linecap="butt" d="m438.74277 474.0866l0 -16.0" fill-rule="evenodd"/><path fill="#000000" fill-opacity="0.0" d="m406.5538 379.0l40.188965 0l0 31.086609l-40.188965 0z" fill-rule="evenodd"/><path fill="#000000" d="m422.56943 386.9381q1.71875 0 2.6875 0.734375q0.984375 0.734375 0.984375 2.171875q0 1.109375 -0.703125 2.0q-0.6875 0.890625 -1.875 1.078125l0 0.03125q0.546875 0.15625 0.875 0.671875q0.328125 0.515625 0.328125 1.34375q0 0.4375 -0.125 1.1875q-0.109375 0.75 -0.109375 1.203125q0 0.265625 0.046875 0.53125q0.0625 0.25 0.171875 0.46875l-1.578125 0q-0.0625 -0.1875 -0.09375 -0.4375q-0.03125 -0.25 -0.03125 -0.578125q0 -0.578125 0.125 -1.234375q0.125 -0.65625 0.125 -1.109375q0 -0.703125 -0.28125 -1.078125q-0.265625 -0.390625 -0.921875 -0.453125l-3.984375 0l-1.015625 4.890625l-1.53125 0l2.421875 -11.421875l4.484375 0zm-3.234375 1.28125l-0.84375 3.984375l3.484375 0q1.28125 0 2.015625 -0.609375q0.734375 -0.609375 0.734375 -1.65625q0 -0.859375 -0.5625 -1.28125q-0.546875 -0.4375 -1.609375 -0.4375l-3.21875 0z" fill-rule="nonzero"/><path fill="#000000" d="m429.20224 396.7506l-1.40625 6.75l4.015625 0l-0.1875 0.859375l-5.03125 0l1.59375 -7.609375l1.015625 0z" fill-rule="nonzero"/><path fill="#000000" fill-opacity="0.0" d="m502.74277 371.12598l40.188995 0l0 30.960632l-40.188995 0z" fill-rule="evenodd"/><path fill="#000000" d="m518.6334 378.78287q1.9375 0 3.125 1.03125q1.203125 1.015625 1.21875 2.921875l-1.515625 0q0 -1.296875 -0.765625 -1.984375q-0.765625 -0.6875 -2.0625 -0.6875q-2.171875 0 -3.46875 1.671875q-1.296875 1.671875 -1.296875 4.015625q0 1.734375 0.859375 2.734375q0.875 0.984375 2.53125 0.984375q1.328125 0 2.21875 -0.703125q0.90625 -0.71875 1.3125 -2.140625l1.515625 0q-0.46875 2.046875 -1.765625 3.09375q-1.296875 1.046875 -3.28125 1.046875q-2.328125 0 -3.625 -1.3125q-1.28125 -1.328125 -1.28125 -3.703125q0 -2.953125 1.75 -4.953125q1.765625 -2.015625 4.53125 -2.015625z" fill-rule="nonzero"/><path fill="#000000" d="m526.5631 390.84537q1.125 0 1.703125 0.59375q0.578125 0.59375 0.578125 1.6875q0 1.46875 -0.859375 2.484375q-0.84375 1.0 -2.1875 1.0q-1.03125 0 -1.671875 -0.625q-0.640625 -0.640625 -0.640625 -1.6875q0 -1.390625 0.84375 -2.421875q0.859375 -1.03125 2.234375 -1.03125zm-2.171875 3.453125q0 0.71875 0.40625 1.125q0.40625 0.390625 1.09375 0.390625q0.875 0 1.453125 -0.8125q0.59375 -0.8125 0.59375 -1.796875q0 -0.703125 -0.375 -1.125q-0.375 -0.4375 -1.078125 -0.4375q-0.890625 0 -1.5 0.828125q-0.59375 0.8125 -0.59375 1.828125z" fill-rule="nonzero"/><path fill="#000000" fill-opacity="0.0" d="m478.74277 402.08923l32.0 0" fill-rule="evenodd"/><path stroke="#38761d" stroke-width="2.0" stroke-linejoin="round" stroke-linecap="butt" d="m478.74277 402.08923l32.0 0" fill-rule="evenodd"/><path fill="#000000" fill-opacity="0.0" d="m485.1428 418.08923l0 0" fill-rule="evenodd"/><path stroke="#38761d" stroke-width="2.0" stroke-linejoin="round" stroke-linecap="butt" d="m485.1428 418.08923l0 0" fill-rule="evenodd"/><path fill="#000000" fill-opacity="0.0" d="m478.74277 418.08923l32.0 0" fill-rule="evenodd"/><path stroke="#38761d" stroke-width="2.0" stroke-linejoin="round" stroke-linecap="butt" d="m478.74277 418.08923l32.0 0" fill-rule="evenodd"/><path fill="#000000" fill-opacity="0.0" d="m494.74277 402.08923l0 -8.0" fill-rule="evenodd"/><path stroke="#38761d" stroke-width="2.0" stroke-linejoin="round" stroke-linecap="butt" d="m494.74277 402.08923l0 -8.0" fill-rule="evenodd"/><path fill="#000000" fill-opacity="0.0" d="m494.74277 418.0866l0 8.0" fill-rule="evenodd"/><path stroke="#38761d" stroke-width="2.0" stroke-linejoin="round" stroke-linecap="butt" d="m494.74277 418.0866l0 8.0" fill-rule="evenodd"/><path fill="#000000" fill-opacity="0.0" d="m494.74277 394.0866l0 -64.0" fill-rule="evenodd"/><path stroke="#000000" stroke-width="1.0" stroke-linejoin="round" stroke-linecap="butt" d="m494.74277 394.0866l0 -64.0" fill-rule="evenodd"/><path fill="#000000" fill-opacity="0.0" d="m494.74277 426.0866l0 64.0" fill-rule="evenodd"/><path stroke="#000000" stroke-width="1.0" stroke-linejoin="round" stroke-linecap="butt" d="m494.74277 426.0866l0 64.0" fill-rule="evenodd"/><path fill="#000000" fill-opacity="0.0" d="m446.74277 330.0866l80.00003 0" fill-rule="evenodd"/><path stroke="#000000" stroke-width="1.0" stroke-linejoin="round" stroke-linecap="butt" d="m446.74277 330.0866l80.00003 0" fill-rule="evenodd"/><path fill="#000000" fill-opacity="0.0" d="m454.74277 490.0866l64.00003 0" fill-rule="evenodd"/><path stroke="#000000" stroke-width="1.0" stroke-linejoin="round" stroke-linecap="butt" d="m454.74277 490.0866l64.00003 0" fill-rule="evenodd"/><path fill="#000000" fill-opacity="0.0" d="m598.7428 314.08502l8.0 5.3335876l-8.0 5.333618l8.0 5.3335876l-8.0 5.3335876l8.0 5.333618l-8.0 5.3335876" fill-rule="evenodd"/><path stroke="#38761d" stroke-width="2.0" stroke-linejoin="round" stroke-linecap="butt" d="m598.7428 314.08502l8.0 5.3335876l-8.0 5.333618l8.0 5.3335876l-8.0 5.3335876l8.0 5.333618l-8.0 5.3335876" fill-rule="evenodd"/><path fill="#000000" fill-opacity="0.0" d="m558.7428 330.0866l40.0 0" fill-rule="evenodd"/><path stroke="#000000" stroke-width="1.0" stroke-linejoin="round" stroke-linecap="butt" d="m558.7428 330.0866l36.572876 0" fill-rule="evenodd"/><path fill="#000000" stroke="#000000" stroke-width="1.0" stroke-linecap="butt" d="m595.3157 330.0866l-1.1245728 1.1246033l3.0897827 -1.1246033l-3.0897827 -1.1245728z" fill-rule="evenodd"/><path fill="#000000" fill-opacity="0.0" d="m598.7428 346.0866l0 48.0" fill-rule="evenodd"/><path stroke="#000000" stroke-width="1.0" stroke-linejoin="round" stroke-linecap="butt" d="m598.7428 346.0866l0 48.0" fill-rule="evenodd"/><path fill="#000000" fill-opacity="0.0" d="m598.7428 402.08502l8.0 5.3335876l-8.0 5.333618l8.0 5.3335876l-8.0 5.3335876l8.0 5.333618l-8.0 5.3335876" fill-rule="evenodd"/><path stroke="#38761d" stroke-width="2.0" stroke-linejoin="round" stroke-linecap="butt" d="m598.7428 402.08502l8.0 5.3335876l-8.0 5.333618l8.0 5.3335876l-8.0 5.3335876l8.0 5.333618l-8.0 5.3335876" fill-rule="evenodd"/><path fill="#000000" fill-opacity="0.0" d="m625.9853 282.0866l5.333557 -8.0l5.333618 8.0l5.333618 -8.0l5.333618 8.0l5.333557 -8.0l5.333618 8.0" fill-rule="evenodd"/><path stroke="#38761d" stroke-width="2.0" stroke-linejoin="round" stroke-linecap="butt" d="m625.9853 282.0866l5.333557 -8.0l5.333618 8.0l5.333618 -8.0l5.333618 8.0l5.333557 -8.0l5.333618 8.0" fill-rule="evenodd"/><path fill="#000000" fill-opacity="0.0" d="m598.7428 314.0866l0 -32.0" fill-rule="evenodd"/><path stroke="#000000" stroke-width="1.0" stroke-linejoin="round" stroke-linecap="butt" d="m598.7428 314.0866l0 -32.0" fill-rule="evenodd"/><path fill="#000000" fill-opacity="0.0" d="m625.9869 282.0866l-27.24408 0" fill-rule="evenodd"/><path stroke="#000000" stroke-width="1.0" stroke-linejoin="round" stroke-linecap="butt" d="m625.9869 282.0866l-27.24408 0" fill-rule="evenodd"/><path fill="#000000" fill-opacity="0.0" d="m598.7428 394.0866l0 8.0" fill-rule="evenodd"/><path stroke="#000000" stroke-width="1.0" stroke-linejoin="round" stroke-linecap="butt" d="m598.7428 394.0866l0 8.0" fill-rule="evenodd"/><path fill="#000000" fill-opacity="0.0" d="m518.7428 490.0866l80.0 0" fill-rule="evenodd"/><path stroke="#000000" stroke-width="1.0" stroke-linejoin="round" stroke-linecap="butt" d="m518.7428 490.0866l80.0 0" fill-rule="evenodd"/><path fill="#000000" fill-opacity="0.0" d="m598.7428 434.0866l0 56.0" fill-rule="evenodd"/><path stroke="#000000" stroke-width="1.0" stroke-linejoin="round" stroke-linecap="butt" d="m598.7428 434.0866l0 56.0" fill-rule="evenodd"/><path fill="#000000" fill-opacity="0.0" d="m738.17584 354.0866l-40.188965 0l0 30.960632l40.188965 0z" fill-rule="evenodd"/><path fill="#000000" d="m713.8775 361.7435q1.9375 0 3.125 1.03125q1.203125 1.015625 1.21875 2.921875l-1.515625 0q0 -1.296875 -0.765625 -1.984375q-0.765625 -0.6875 -2.0625 -0.6875q-2.171875 0 -3.46875 1.671875q-1.296875 1.671875 -1.296875 4.015625q0 1.734375 0.859375 2.734375q0.875 0.984375 2.53125 0.984375q1.328125 0 2.21875 -0.703125q0.90625 -0.71875 1.3125 -2.140625l1.515625 0q-0.46875 2.046875 -1.765625 3.09375q-1.296875 1.046875 -3.28125 1.046875q-2.328125 0 -3.625 -1.3125q-1.28125 -1.328125 -1.28125 -3.703125q0 -2.953125 1.75 -4.953125q1.765625 -2.015625 4.53125 -2.015625z" fill-rule="nonzero"/><path fill="#000000" d="m721.97906 371.88412q0.953125 0 1.53125 0.5625q0.59375 0.546875 0.59375 1.453125q0 0.8125 -0.546875 1.5q-0.53125 0.671875 -2.078125 1.515625q-0.984375 0.546875 -1.40625 0.96875q-0.421875 0.40625 -0.546875 0.765625l3.9375 0l-0.171875 0.796875l-4.8125 0q0.0625 -0.9375 0.578125 -1.625q0.515625 -0.6875 1.796875 -1.4375q1.359375 -0.78125 1.828125 -1.28125q0.46875 -0.5 0.46875 -1.140625q0 -0.5625 -0.328125 -0.90625q-0.328125 -0.359375 -0.953125 -0.359375q-0.6875 0 -1.140625 0.5q-0.453125 0.484375 -0.5 1.265625l-0.96875 0q0.140625 -1.25 0.84375 -1.90625q0.71875 -0.671875 1.875 -0.671875z" fill-rule="nonzero"/><path fill="#000000" fill-opacity="0.0" d="m737.9869 282.0866l0 96.0" fill-rule="evenodd"/><path stroke="#000000" stroke-width="1.0" stroke-linejoin="round" stroke-linecap="butt" d="m737.9869 282.0866l0 96.0" fill-rule="evenodd"/><path fill="#000000" fill-opacity="0.0" d="m737.9869 410.0866l0 80.0" fill-rule="evenodd"/><path stroke="#000000" stroke-width="1.0" stroke-linejoin="round" stroke-linecap="butt" d="m737.9869 410.0866l0 80.0" fill-rule="evenodd"/><path fill="#000000" fill-opacity="0.0" d="m793.9869 490.0866l0 -72.0" fill-rule="evenodd"/><path stroke="#000000" stroke-width="1.0" stroke-linejoin="round" stroke-linecap="butt" d="m793.9869 490.0866l0 -72.0" fill-rule="evenodd"/><path fill="#000000" fill-opacity="0.0" d="m809.9869 386.0866l-32.0 0" fill-rule="evenodd"/><path stroke="#38761d" stroke-width="2.0" stroke-linejoin="round" stroke-linecap="butt" d="m809.9869 386.0866l-32.0 0" fill-rule="evenodd"/><path fill="#000000" fill-opacity="0.0" d="m803.58685 402.0866l0 0" fill-rule="evenodd"/><path stroke="#38761d" stroke-width="2.0" stroke-linejoin="round" stroke-linecap="butt" d="m803.58685 402.0866l0 0" fill-rule="evenodd"/><path fill="#000000" fill-opacity="0.0" d="m809.9869 402.0866l-32.0 0" fill-rule="evenodd"/><path stroke="#38761d" stroke-width="2.0" stroke-linejoin="round" stroke-linecap="butt" d="m809.9869 402.0866l-32.0 0" fill-rule="evenodd"/><path fill="#000000" fill-opacity="0.0" d="m803.58685 394.0866l-19.212585 0" fill-rule="evenodd"/><path stroke="#38761d" stroke-width="2.0" stroke-linejoin="round" stroke-linecap="butt" d="m803.58685 394.0866l-19.212585 0" fill-rule="evenodd"/><path fill="#000000" fill-opacity="0.0" d="m803.58685 410.0866l-19.212585 0" fill-rule="evenodd"/><path stroke="#38761d" stroke-width="2.0" stroke-linejoin="round" stroke-linecap="butt" d="m803.58685 410.0866l-19.212585 0" fill-rule="evenodd"/><path fill="#000000" fill-opacity="0.0" d="m793.9869 386.0866l0 -8.0" fill-rule="evenodd"/><path stroke="#38761d" stroke-width="2.0" stroke-linejoin="round" stroke-linecap="butt" d="m793.9869 386.0866l0 -8.0" fill-rule="evenodd"/><path fill="#000000" fill-opacity="0.0" d="m793.9869 410.0866l0 8.0" fill-rule="evenodd"/><path stroke="#38761d" stroke-width="2.0" stroke-linejoin="round" stroke-linecap="butt" d="m793.9869 410.0866l0 8.0" fill-rule="evenodd"/><path fill="#000000" fill-opacity="0.0" d="m793.9869 378.0866l0 -96.0" fill-rule="evenodd"/><path stroke="#000000" stroke-width="1.0" stroke-linejoin="round" stroke-linecap="butt" d="m793.9869 378.0866l0 -96.0" fill-rule="evenodd"/><path fill="#000000" fill-opacity="0.0" d="m841.9869 347.12598l-48.188965 0l0 30.960632l48.188965 0z" fill-rule="evenodd"/><path fill="#000000" d="m805.6104 355.06412l1.171875 9.9375l0.03125 0l5.421875 -9.9375l1.625 0l-6.453125 11.421875l-1.703125 0l-1.640625 -11.421875l1.546875 0z" fill-rule="nonzero"/><path fill="#000000" d="m815.0401 364.87662l-0.59375 2.78125l0.03125 0.015625q0.34375 -0.421875 0.765625 -0.625q0.421875 -0.203125 0.90625 -0.203125q1.0625 0 1.609375 0.640625q0.5625 0.625 0.5625 1.734375q0 1.421875 -0.8125 2.40625q-0.8125 0.984375 -2.109375 0.984375q-0.640625 0 -1.171875 -0.3125q-0.53125 -0.328125 -0.671875 -0.84375l-0.03125 0l-0.203125 1.03125l-0.796875 0l1.609375 -7.609375l0.90625 0zm-1.140625 5.5625q0 0.640625 0.40625 1.015625q0.421875 0.359375 1.09375 0.359375q0.875 0 1.4375 -0.828125q0.578125 -0.828125 0.578125 -1.765625q0 -0.703125 -0.34375 -1.140625q-0.328125 -0.4375 -0.9375 -0.4375q-1.0 0 -1.625 0.859375q-0.609375 0.84375 -0.609375 1.9375zm7.9417114 -3.59375q1.0 0 1.5 0.359375q0.515625 0.34375 0.515625 1.046875q0 0.171875 -0.046875 0.390625q-0.03125 0.203125 -0.0625 0.359375l-0.484375 2.078125q-0.078125 0.3125 -0.078125 0.46875q0 0.140625 0.046875 0.25q0.0625 0.09375 0.21875 0.09375q0.078125 0 0.140625 -0.03125l0.140625 -0.046875l-0.140625 0.671875q-0.09375 0.046875 -0.265625 0.078125q-0.15625 0.046875 -0.28125 0.046875q-0.328125 0 -0.53125 -0.171875q-0.1875 -0.171875 -0.1875 -0.515625q0 -0.046875 0.015625 -0.078125l-0.03125 -0.03125q-0.328125 0.4375 -0.78125 0.625q-0.4375 0.171875 -1.0625 0.171875q-0.78125 0 -1.234375 -0.390625q-0.453125 -0.390625 -0.453125 -1.15625q0 -0.796875 0.546875 -1.25q0.5625 -0.453125 2.515625 -0.59375q0.578125 -0.046875 0.84375 -0.203125q0.265625 -0.171875 0.265625 -0.640625q0 -0.359375 -0.3125 -0.546875q-0.296875 -0.1875 -0.796875 -0.1875q-0.59375 0 -1.0 0.265625q-0.40625 0.25 -0.484375 0.734375l-0.90625 0q0.125 -0.859375 0.765625 -1.328125q0.65625 -0.46875 1.625 -0.46875zm0.84375 2.828125q-0.328125 0.21875 -1.078125 0.28125q-1.125 0.09375 -1.53125 0.34375q-0.390625 0.25 -0.390625 0.75q0 0.359375 0.28125 0.5625q0.296875 0.203125 0.71875 0.203125q0.59375 0 0.96875 -0.21875q0.390625 -0.21875 0.609375 -0.5625q0.234375 -0.359375 0.4375 -1.359375l-0.015625 0zm4.421692 -4.328125l-0.328125 1.625l1.09375 0l-0.171875 0.8125l-1.09375 0l-0.671875 3.203125q-0.046875 0.1875 -0.046875 0.390625q0 0.203125 0.140625 0.296875q0.15625 0.078125 0.40625 0.078125q0.109375 0 0.234375 -0.015625q0.125 -0.03125 0.28125 -0.078125l-0.15625 0.8125l0 0.015625q-0.171875 0.03125 -0.328125 0.046875q-0.15625 0.015625 -0.3125 0.015625q-0.640625 0 -0.9375 -0.234375q-0.296875 -0.234375 -0.296875 -0.65625q0 -0.09375 0.015625 -0.234375q0.015625 -0.140625 0.046875 -0.25l0.71875 -3.390625l-0.921875 0l0.15625 -0.8125l0.9375 0l0.34375 -1.625l0.890625 0z" fill-rule="nonzero"/><path fill="#000000" fill-opacity="0.0" d="m682.17584 354.0866l-40.188965 0l0 30.960632l40.188965 0z" fill-rule="evenodd"/><path fill="#000000" d="m657.8775 361.7435q1.9375 0 3.125 1.03125q1.203125 1.015625 1.21875 2.921875l-1.515625 0q0 -1.296875 -0.765625 -1.984375q-0.765625 -0.6875 -2.0625 -0.6875q-2.171875 0 -3.46875 1.671875q-1.296875 1.671875 -1.296875 4.015625q0 1.734375 0.859375 2.734375q0.875 0.984375 2.53125 0.984375q1.328125 0 2.21875 -0.703125q0.90625 -0.71875 1.3125 -2.140625l1.515625 0q-0.46875 2.046875 -1.765625 3.09375q-1.296875 1.046875 -3.28125 1.046875q-2.328125 0 -3.625 -1.3125q-1.28125 -1.328125 -1.28125 -3.703125q0 -2.953125 1.75 -4.953125q1.765625 -2.015625 4.53125 -2.015625z" fill-rule="nonzero"/><path fill="#000000" d="m667.15094 371.89975l-1.59375 7.515625l-0.015625 0.03125l-0.953125 0l1.21875 -5.75q-0.484375 0.125 -0.953125 0.171875q-0.46875 0.046875 -0.984375 0.046875l0.140625 -0.71875q0.796875 -0.015625 1.453125 -0.359375q0.671875 -0.359375 0.984375 -0.9375l0.703125 0z" fill-rule="nonzero"/><path fill="#000000" fill-opacity="0.0" d="m681.9869 282.0866l0 96.0" fill-rule="evenodd"/><path stroke="#000000" stroke-width="1.0" stroke-linejoin="round" stroke-linecap="butt" d="m681.9869 282.0866l0 96.0" fill-rule="evenodd"/><path fill="#000000" fill-opacity="0.0" d="m681.9869 410.0866l0 80.0" fill-rule="evenodd"/><path stroke="#000000" stroke-width="1.0" stroke-linejoin="round" stroke-linecap="butt" d="m681.9869 410.0866l0 80.0" fill-rule="evenodd"/><path fill="#000000" fill-opacity="0.0" d="m697.9869 386.0866l-32.0 0" fill-rule="evenodd"/><path stroke="#38761d" stroke-width="2.0" stroke-linejoin="round" stroke-linecap="butt" d="m697.9869 386.0866l-32.0 0" fill-rule="evenodd"/><path fill="#000000" fill-opacity="0.0" d="m691.58685 402.0866l0 0" fill-rule="evenodd"/><path stroke="#38761d" stroke-width="2.0" stroke-linejoin="round" stroke-linecap="butt" d="m691.58685 402.0866l0 0" fill-rule="evenodd"/><path fill="#000000" fill-opacity="0.0" d="m697.9869 402.0866l-32.0 0" fill-rule="evenodd"/><path stroke="#38761d" stroke-width="2.0" stroke-linejoin="round" stroke-linecap="butt" d="m697.9869 402.0866l-32.0 0" fill-rule="evenodd"/><path fill="#000000" fill-opacity="0.0" d="m681.9869 386.0866l0 -8.0" fill-rule="evenodd"/><path stroke="#38761d" stroke-width="2.0" stroke-linejoin="round" stroke-linecap="butt" d="m681.9869 386.0866l0 -8.0" fill-rule="evenodd"/><path fill="#000000" fill-opacity="0.0" d="m681.9869 402.08398l0 8.0" fill-rule="evenodd"/><path stroke="#38761d" stroke-width="2.0" stroke-linejoin="round" stroke-linecap="butt" d="m681.9869 402.08398l0 8.0" fill-rule="evenodd"/><path fill="#000000" fill-opacity="0.0" d="m745.9869 386.08923l-16.0 0" fill-rule="evenodd"/><path stroke="#38761d" stroke-width="2.0" stroke-linejoin="round" stroke-linecap="butt" d="m745.9869 386.08923l-16.0 0" fill-rule="evenodd"/><path fill="#000000" fill-opacity="0.0" d="m747.58685 402.08923l0 0" fill-rule="evenodd"/><path stroke="#38761d" stroke-width="2.0" stroke-linejoin="round" stroke-linecap="butt" d="m747.58685 402.08923l0 0" fill-rule="evenodd"/><path fill="#000000" fill-opacity="0.0" d="m737.9869 386.08923l0 -8.0" fill-rule="evenodd"/><path stroke="#38761d" stroke-width="2.0" stroke-linejoin="round" stroke-linecap="butt" d="m737.9869 386.08923l0 -8.0" fill-rule="evenodd"/><path fill="#000000" fill-opacity="0.0" d="m737.9869 402.0866l0 8.0" fill-rule="evenodd"/><path stroke="#38761d" stroke-width="2.0" stroke-linejoin="round" stroke-linecap="butt" d="m737.9869 402.0866l0 8.0" fill-rule="evenodd"/><path fill="#000000" fill-opacity="0.0" d="m721.9869 386.08923l0 16.0l32.0 0l0 -16.0" fill-rule="evenodd"/><path stroke="#38761d" stroke-width="2.0" stroke-linejoin="round" stroke-linecap="butt" d="m721.9869 386.08923l0 16.0l32.0 0l0 -16.0" fill-rule="evenodd"/><path fill="#000000" fill-opacity="0.0" d="m657.9869 282.0866l136.0 0" fill-rule="evenodd"/><path stroke="#000000" stroke-width="1.0" stroke-linejoin="round" stroke-linecap="butt" d="m657.9869 282.0866l136.0 0" fill-rule="evenodd"/><path fill="#000000" fill-opacity="0.0" d="m593.9869 490.0866l200.0 0" fill-rule="evenodd"/><path stroke="#000000" stroke-width="1.0" stroke-linejoin="round" stroke-linecap="butt" d="m593.9869 490.0866l200.0 0" fill-rule="evenodd"/><path fill="#000000" fill-opacity="0.0" d="m609.7979 314.0866l40.188965 0l0 31.086609l-40.188965 0z" fill-rule="evenodd"/><path fill="#000000" d="m625.81354 322.02475q1.71875 0 2.6875 0.734375q0.984375 0.734375 0.984375 2.171875q0 1.109375 -0.703125 2.0q-0.6875 0.890625 -1.875 1.078125l0 0.03125q0.546875 0.15625 0.875 0.671875q0.328125 0.515625 0.328125 1.34375q0 0.4375 -0.125 1.1875q-0.109375 0.75 -0.109375 1.203125q0 0.265625 0.046875 0.53125q0.0625 0.25 0.171875 0.46875l-1.578125 0q-0.0625 -0.1875 -0.09375 -0.4375q-0.03125 -0.25 -0.03125 -0.578125q0 -0.578125 0.125 -1.234375q0.125 -0.65625 0.125 -1.109375q0 -0.703125 -0.28125 -1.078125q-0.265625 -0.390625 -0.921875 -0.453125l-3.984375 0l-1.015625 4.890625l-1.53125 0l2.421875 -11.421875l4.484375 0zm-3.234375 1.28125l-0.84375 3.984375l3.484375 0q1.28125 0 2.015625 -0.609375q0.734375 -0.609375 0.734375 -1.65625q0 -0.859375 -0.5625 -1.28125q-0.546875 -0.4375 -1.609375 -0.4375l-3.21875 0z" fill-rule="nonzero"/><path fill="#000000" d="m633.19635 331.88412q0.953125 0 1.53125 0.5625q0.59375 0.546875 0.59375 1.453125q0 0.8125 -0.546875 1.5q-0.53125 0.671875 -2.078125 1.515625q-0.984375 0.546875 -1.40625 0.96875q-0.421875 0.40625 -0.546875 0.765625l3.9375 0l-0.171875 0.796875l-4.8125 0q0.0625 -0.9375 0.578125 -1.625q0.515625 -0.6875 1.796875 -1.4375q1.359375 -0.78125 1.828125 -1.28125q0.46875 -0.5 0.46875 -1.140625q0 -0.5625 -0.328125 -0.90625q-0.328125 -0.359375 -0.953125 -0.359375q-0.6875 0 -1.140625 0.5q-0.453125 0.484375 -0.5 1.265625l-0.96875 0q0.140625 -1.25 0.84375 -1.90625q0.71875 -0.671875 1.875 -0.671875z" fill-rule="nonzero"/><path fill="#000000" fill-opacity="0.0" d="m609.7979 402.0866l40.188965 0l0 31.086609l-40.188965 0z" fill-rule="evenodd"/><path fill="#000000" d="m625.81354 410.02475q1.71875 0 2.6875 0.734375q0.984375 0.734375 0.984375 2.171875q0 1.109375 -0.703125 2.0q-0.6875 0.890625 -1.875 1.078125l0 0.03125q0.546875 0.15625 0.875 0.671875q0.328125 0.515625 0.328125 1.34375q0 0.4375 -0.125 1.1875q-0.109375 0.75 -0.109375 1.203125q0 0.265625 0.046875 0.53125q0.0625 0.25 0.171875 0.46875l-1.578125 0q-0.0625 -0.1875 -0.09375 -0.4375q-0.03125 -0.25 -0.03125 -0.578125q0 -0.578125 0.125 -1.234375q0.125 -0.65625 0.125 -1.109375q0 -0.703125 -0.28125 -1.078125q-0.265625 -0.390625 -0.921875 -0.453125l-3.984375 0l-1.015625 4.890625l-1.53125 0l2.421875 -11.421875l4.484375 0zm-3.234375 1.28125l-0.84375 3.984375l3.484375 0q1.28125 0 2.015625 -0.609375q0.734375 -0.609375 0.734375 -1.65625q0 -0.859375 -0.5625 -1.28125q-0.546875 -0.4375 -1.609375 -0.4375l-3.21875 0z" fill-rule="nonzero"/><path fill="#000000" d="m633.0557 419.88412q1.046875 0 1.609375 0.5q0.578125 0.484375 0.578125 1.390625q0 0.59375 -0.375 1.078125q-0.375 0.46875 -0.984375 0.65625q0.484375 0.21875 0.734375 0.609375q0.25 0.375 0.25 0.9375q0 0.65625 -0.390625 1.28125q-0.375 0.609375 -1.0 0.921875q-0.609375 0.3125 -1.34375 0.3125q-1.15625 0 -1.765625 -0.609375q-0.609375 -0.609375 -0.609375 -1.75l0 -0.109375l0.953125 0l0 0.09375q0 0.8125 0.375 1.203125q0.375 0.375 1.078125 0.375q0.765625 0 1.25 -0.453125q0.484375 -0.46875 0.484375 -1.21875q0 -0.640625 -0.421875 -0.9375q-0.40625 -0.296875 -1.375 -0.296875l-0.078125 0l0.171875 -0.71875q0.0625 0 0.140625 0q0.078125 0 0.140625 0q0.90625 0 1.34375 -0.34375q0.453125 -0.359375 0.453125 -1.078125q0 -0.53125 -0.3125 -0.78125q-0.296875 -0.25 -0.953125 -0.25q-0.671875 0 -1.0625 0.390625q-0.390625 0.375 -0.484375 1.140625l-0.953125 0q0.171875 -1.125 0.828125 -1.734375q0.671875 -0.609375 1.71875 -0.609375z" fill-rule="nonzero"/><path fill="#ffffff" d="m216.2546 410.0866l0 0c0 -8.836548 7.163437 -16.0 16.0 -16.0l0 0c4.243469 0 8.313126 1.68573 11.313705 4.68631c3.0005798 3.0005798 4.6862946 7.070221 4.6862946 11.31369l0 0c0 8.836548 -7.163437 16.0 -16.0 16.0l0 0c-8.836563 0 -16.0 -7.163452 -16.0 -16.0z" fill-rule="evenodd"/><path stroke="#38761d" stroke-width="2.0" stroke-linejoin="round" stroke-linecap="butt" d="m216.2546 410.0866l0 0c0 -8.836548 7.163437 -16.0 16.0 -16.0l0 0c4.243469 0 8.313126 1.68573 11.313705 4.68631c3.0005798 3.0005798 4.6862946 7.070221 4.6862946 11.31369l0 0c0 8.836548 -7.163437 16.0 -16.0 16.0l0 0c-8.836563 0 -16.0 -7.163452 -16.0 -16.0z" fill-rule="evenodd"/><path fill="#000000" fill-opacity="0.0" d="m211.49869 396.0866l40.0 0l0 29.51181l-40.0 0z" fill-rule="evenodd"/><path fill="#000000" d="m230.65385 406.26752l0 -2.484375l-2.5 0l0 -1.703125l2.5 0l0 -2.484375l1.671875 0l0 2.484375l2.5 0l0 1.703125l-2.5 0l0 2.484375l-1.671875 0z" fill-rule="nonzero"/><path fill="#000000" d="m230.0295 421.09564l0 -1.828125l3.59375 0l0 1.828125l-3.59375 0z" fill-rule="nonzero"/></g></svg>